<svg xmlns="http://www.w3.org/2000/svg" version="1.1" xmlns:xlink="http://www.w3.org/1999/xlink" xmlns:svgjs="http://svgjs.dev/svgjs" width="2000" height="2250" viewBox="0 0 2000 2250"><g transform="matrix(1,0,0,1,3.410605131648481e-13,0)"><svg viewBox="0 0 320 360" data-background-color="#1ebbd7" preserveAspectRatio="xMidYMid meet" height="2250" width="2000" xmlns="http://www.w3.org/2000/svg" xmlns:xlink="http://www.w3.org/1999/xlink"><g id="tight-bounds" transform="matrix(1,0,0,1,0,0)"><svg viewBox="0 0 320 360" height="360" width="320"><g><svg></svg></g><g><svg viewBox="0 0 320 360" height="360" width="320"><g><path d="M20.961 227.22l3.726 4.658-1.863-6.056c-0.466-2.795-3.726 0.466-1.863 1.398M25.153 224.425c1.397 2.329 2.795 4.658 2.795 6.987 0 3.261 2.795 4.658 5.123 5.589-3.261-3.726-5.124-13.974-7.918-12.576M204.017 26.929c7.918 0 15.371-0.932 23.756 0.931 20.495 5.124 37.729 15.371 49.374 29.811l32.606 52.169c1.397 13.042 4.192 27.482 3.726 43.319 3.261 0 2.795-4.658 6.521-5.59-3.726 9.316-5.59 20.961-6.521 34.469-2.329-7.453 0-18.632 0.466-24.687-3.261 5.124-5.124 1.397-5.124-0.932 0.466-3.726-1.397-3.261-2.795-4.658-5.124-4.658-8.384-9.782-12.11-17.7 2.329-6.055 2.795-14.905-4.658-19.563-2.329-1.397-5.124-3.726-6.521-7.453-1.863-5.124-5.124-11.179-4.193-19.097 0.466-2.329-6.987 5.124-11.179 1.863-18.166-12.576-36.332-27.016-58.224-39.127-11.645 0-20.029-4.192-24.221-9.316-3.726-4.658-0.932-10.713 4.658-11.179 3.261 0 6.987-0.932 9.782 0.932 0.466-1.863 2.329-4.192 4.657-4.192M157.904 16.215l0.932 0.466c4.658 0.932 6.987 7.453 12.11 5.124 0 3.261 0.466 6.521-0.466 8.85-1.397 3.726-5.59 3.726-8.85 3.726-31.208-1.863-49.374 11.179-68.471 22.358-5.124 3.261-10.713 5.59-14.906 9.782-20.029 18.632-41.921 35.866-47.045 70.335l-4.192 38.195c-0.466 4.192-5.124 8.384-4.192 13.508l3.26 22.824c-3.261-3.261-5.124 0.932-4.192 2.795 0.466 1.397 2.329 6.055 5.124 1.863 3.726 6.987 7.453 20.495 12.576 26.55 15.837 18.632 36.332 35.4 53.101 52.169 4.192-0.932 7.453-0.932 8.384-3.727 1.397 2.795-1.397 5.59-3.726 6.056 7.453 4.658 15.837 8.85 27.016 9.781 14.44 0.932 27.948 3.261 40.524 6.522 6.521-1.863 13.042-2.795 20.029-3.261 2.329 0 3.726-3.726 6.521-4.658l0.466-4.658c2.795 4.192 2.329-1.397 0.466-4.192 3.261 2.795 4.192 5.124 5.589 6.987 0-1.397 3.726-6.521 3.727-0.466l0.931-6.055c1.397-0.932 1.863 5.124 3.261 0.931 1.397-4.192 4.192-0.932 6.987-2.329-0.932 1.863-0.466 5.59 2.794 3.261l3.727-3.261c2.329 5.59 6.055 3.261 7.918 2.329 20.495-13.042 40.99-28.413 60.553-43.784l-0.466 6.055 2.329-7.453c2.329 2.329 4.192 0.466 5.124-0.931 2.795-4.658 6.521-9.316 12.577-13.508-7.453 20.029-16.303 35.866-27.482 48.908l-4.658 5.59c0 3.261-0.932 7.453-4.658 7.918-1.863 0.466-5.59-0.932-8.384 1.863-1.397 1.863 3.261 5.59-0.466 2.795-3.261-2.329-6.521 0-10.248 0.932-2.795 0.932 1.863 3.726 2.795 5.589 0.932 1.863 1.863 3.726 1.398 6.056l-5.124-5.59c-6.055 3.261-9.782 9.316-14.906 13.974-2.329 1.863-1.397 5.124-1.397 7.918-3.261 0-6.987-0.932-8.85 0.932-1.397 1.863-0.932 4.658-0.932 7.453-4.658-0.466-5.124-7.453-9.315-6.056-4.192 0.932-8.85 1.397-12.577 3.727 2.795 5.59-4.658 2.329-3.726 3.26-6.987-4.192-13.042-7.453-20.495-4.658-15.837-5.124-35.4-2.795-49.84-0.931 0-2.329 0.466-4.658-0.466-5.124-0.932 2.329-3.726 1.397-3.26 1.397-8.85-6.055-17.7-9.782-27.016-14.905-8.384 0.932-16.303-3.261-18.632-5.59-6.521-6.055-13.974-2.795-20.029-4.192-13.042-3.261-17.7-16.769-19.098-26.084-0.932-4.658-4.658-6.521-6.055-6.056-6.055-19.563-15.371-37.263-22.824-55.429-1.863-4.658-1.397-9.316-1.397-14.44 2.329 0.932 4.658 0.466 4.192-2.794-2.329-15.371-7.918-27.016-13.974-38.195 3.261-15.837 3.726-34.469 11.179-48.443 6.521-12.576 18.632-19.098 27.016-29.811 2.795-3.726 2.795-8.85 5.59-12.11 9.316-9.316 18.632-19.098 28.879-27.482 4.658-3.726 10.247 0 17.234-1.397 2.329-8.384 11.645-15.837 20.495-13.508 3.726 0.932 11.179-8.85 13.508-9.782 3.726-1.397 1.863 3.726 1.863 6.987 8.85-6.987 20.961-10.713 32.14-14.906" fill="#ffffff" fill-rule="nonzero" stroke="none" stroke-width="1" stroke-linecap="butt" stroke-linejoin="miter" stroke-miterlimit="10" stroke-dasharray="" stroke-dashoffset="0" font-family="none" font-weight="none" font-size="none" text-anchor="none" style="mix-blend-mode: normal" data-fill-palette-color="tertiary"></path></g><g transform="matrix(1,0,0,1,93.08977964529745,90)"><svg viewBox="0 0 133.8204407094051 180" height="180" width="133.8204407094051"><g><svg viewBox="0 0 133.8204407094051 180" height="180" width="133.8204407094051"><g><svg viewBox="0 0 182.1538061797753 245.01253275319092" height="180" width="133.8204407094051"><g><svg viewBox="0 0 182.1538061797753 245.01253275319092" height="245.01253275319092" width="182.1538061797753"><g id="textblocktransform"><svg viewBox="0 0 182.1538061797753 245.01253275319092" height="245.01253275319092" width="182.1538061797753" id="textblock"><g><svg viewBox="0 0 182.1538061797753 178.88760000000002" height="178.88760000000002" width="182.1538061797753"><g transform="matrix(1,0,0,1,0,0)"><svg width="182.1538061797753" viewBox="2.25 -35 36.25 35.6" height="178.88760000000002" data-palette-color="#ffffff"><path d="M21-35Q25.95-35 29.9-33.5 33.85-32 36.18-29.08 38.5-26.15 38.5-21.95L38.5-21.95 27.95-21.95Q27.95-24.1 26.05-25.43 24.15-26.75 21.45-26.75L21.45-26.75Q17.55-26.75 15.55-24.68 13.55-22.6 13.55-18.8L13.55-18.8 13.55-15.6Q13.55-11.8 15.55-9.73 17.55-7.65 21.45-7.65L21.45-7.65Q24.15-7.65 26.05-8.93 27.95-10.2 27.95-12.2L27.95-12.2 20.15-12.2 20.15-19.2 38.5-19.2 38.5 0 32.8 0 31.7-3.4Q27 0.6 19.4 0.6L19.4 0.6Q10.85 0.6 6.55-3.88 2.25-8.35 2.25-17.2L2.25-17.2Q2.25-25.95 7.13-30.48 12-35 21-35L21-35Z" opacity="1" transform="matrix(1,0,0,1,0,0)" fill="#ffffff" class="wordmark-text-0" data-fill-palette-color="primary" id="text-0"></path></svg></g></svg></g><g transform="matrix(1,0,0,1,0,204.99159414240003)"><svg viewBox="0 0 182.1538061797753 40.02093861079091" height="40.02093861079091" width="182.1538061797753"><g transform="matrix(1,0,0,1,0,0)"><svg width="182.1538061797753" viewBox="2 -34.5 210.03 46.15" height="40.02093861079091" data-palette-color="#ffffff"><path d="M18.25-2.25L17.8-2.6Q15.85-1.5 13.73-0.48 11.6 0.55 9.25 0.55L9.25 0.55Q7.2 0.55 5.55-0.68 3.9-1.9 2.95-4.1 2-6.3 2-9.2L2-9.2Q2-13.65 3.53-16.8 5.05-19.95 7.65-21.6 10.25-23.25 13.45-23.25L13.45-23.25Q15-23.25 16.53-22.88 18.05-22.5 19.3-21.55L19.3-21.55 21.85-23 22.55-22.7Q22.45-21 22.38-19.33 22.3-17.65 22.23-15.6 22.15-13.55 22.13-10.78 22.1-8 22.1-4.1L22.1-4.1Q22.1-2.65 21.93-0.28 21.75 2.1 21 4.3L21 4.3Q20.4 5.95 19.25 7.18 18.1 8.4 17.35 8.95L17.35 8.95Q15.45 10.4 13.5 11.03 11.55 11.65 9.25 11.65L9.25 11.65Q7.6 11.65 5.9 11.1 4.2 10.55 2.35 8.85L2.35 8.85 4.8 5.75 5.5 5.75Q5.95 6.65 6.8 7.53 7.65 8.4 8.63 9 9.6 9.6 10.5 9.6L10.5 9.6Q13.15 9.6 14.83 8 16.5 6.4 17.32 3.7 18.15 1 18.25-2.25L18.25-2.25ZM18.25-4.95L18.25-4.95 18.25-18.15Q18.15-19.9 16.78-20.73 15.4-21.55 13.8-21.55L13.8-21.55Q11.6-21.55 10.15-20.43 8.7-19.3 7.85-17.53 7-15.75 6.65-13.8 6.3-11.85 6.3-10.15L6.3-10.15Q6.3-7.9 7.2-6.2 8.1-4.5 9.43-3.55 10.75-2.6 12-2.6L12-2.6Q13.15-2.6 14.38-3 15.6-3.4 16.65-3.95 17.7-4.5 18.25-4.95ZM46.4-15.95L46.4-15.95 32.3-9.85Q32.45-8.3 33.12-6.65 33.8-5 35.17-3.9 36.55-2.8 38.75-2.8L38.75-2.8Q40.8-2.8 42.77-3.85 44.75-4.9 46.45-6.2L46.45-6.2 47-6.1 47.65-5.2Q46.1-3.75 44.27-2.43 42.45-1.1 40.42-0.25 38.4 0.6 36.25 0.6L36.25 0.6Q33.75 0.6 32.12-0.45 30.5-1.5 29.6-3.23 28.7-4.95 28.32-7.08 27.95-9.2 27.95-11.3L27.95-11.3Q27.95-13.5 28.5-15.6 29.05-17.7 30.5-19.4L30.5-19.4Q32.35-21.55 34.92-22.73 37.5-23.9 40.35-23.9L40.35-23.9Q43.6-23.9 45.52-21.9 47.45-19.9 47.45-17L47.45-17Q47.45-16.55 47.12-16.35 46.8-16.15 46.4-15.95ZM34.4-19.8L34.4-19.8Q32.95-18.25 32.52-16.55 32.1-14.85 32.1-13L32.1-13Q32.1-12.8 32.12-12.58 32.15-12.35 32.2-12.1L32.2-12.1 32.4-11.9 42.5-15.9Q42.75-16 42.95-16.3 43.15-16.6 43.15-17.2L43.15-17.2Q43.15-18.25 42.6-19.35 42.05-20.45 41.02-21.18 40-21.9 38.6-21.9L38.6-21.9Q37.35-21.9 36.27-21.35 35.2-20.8 34.4-19.8ZM69.5-15.95L69.5-15.95 55.4-9.85Q55.55-8.3 56.22-6.65 56.9-5 58.27-3.9 59.65-2.8 61.85-2.8L61.85-2.8Q63.9-2.8 65.87-3.85 67.84-4.9 69.55-6.2L69.55-6.2 70.09-6.1 70.75-5.2Q69.2-3.75 67.37-2.43 65.55-1.1 63.52-0.25 61.5 0.6 59.35 0.6L59.35 0.6Q56.85 0.6 55.22-0.45 53.6-1.5 52.7-3.23 51.8-4.95 51.42-7.08 51.05-9.2 51.05-11.3L51.05-11.3Q51.05-13.5 51.6-15.6 52.15-17.7 53.6-19.4L53.6-19.4Q55.45-21.55 58.02-22.73 60.6-23.9 63.45-23.9L63.45-23.9Q66.7-23.9 68.62-21.9 70.55-19.9 70.55-17L70.55-17Q70.55-16.55 70.22-16.35 69.9-16.15 69.5-15.95ZM57.5-19.8L57.5-19.8Q56.05-18.25 55.62-16.55 55.2-14.85 55.2-13L55.2-13Q55.2-12.8 55.22-12.58 55.25-12.35 55.3-12.1L55.3-12.1 55.5-11.9 65.59-15.9Q65.84-16 66.05-16.3 66.25-16.6 66.25-17.2L66.25-17.2Q66.25-18.25 65.7-19.35 65.15-20.45 64.12-21.18 63.1-21.9 61.7-21.9L61.7-21.9Q60.45-21.9 59.37-21.35 58.3-20.8 57.5-19.8ZM79.44-13.3L80.09-13.3 86.79-19.45Q88.74-21.25 89.74-22.15 90.74-23.05 91.29-23.48 91.84-23.9 92.44-24.25L92.44-24.25 94.74-22.8 94.74-22.25Q91.94-20.6 89.27-18.7 86.59-16.8 84.09-14.7L84.09-14.7Q83.84-14.5 83.52-14.2 83.19-13.9 83.19-13.7L83.19-13.7Q83.19-13.5 83.34-13.3 83.49-13.1 83.59-12.9L83.59-12.9Q84.69-11.5 86.07-9.9 87.44-8.3 88.84-6.88 90.24-5.45 91.44-4.55 92.64-3.65 93.39-3.65L93.39-3.65Q94.64-3.65 95.57-4.2 96.49-4.75 97.29-5.6L97.29-5.6 98.24-4.6Q97.64-3.8 96.67-2.63 95.69-1.45 94.47-0.55 93.24 0.35 91.89 0.35L91.89 0.35Q90.79 0.35 89.99-0.18 89.19-0.7 87.94-2.1L87.94-2.1Q87.94-2.1 87.22-3.08 86.49-4.05 85.29-5.6 84.09-7.15 82.69-8.85 81.29-10.55 79.94-12.05L79.94-12.05 79.34-11.7 79.34-0.65 75.79 0.35 75.49 0Q75.64-5.9 75.87-11.7 76.09-17.5 76.09-23.4L76.09-23.4Q76.09-25.3 75.99-27 75.89-28.7 75.64-29.7L75.64-29.7Q75.29-30.85 74.32-31.28 73.34-31.7 71.34-31.9L71.34-31.9 71.34-32.95 71.59-33.15 79.59-34.3 79.44-33.95 79.44-13.3ZM102.74 9.1L102.74 9.1 102.64 8.55 104.84 5.75 105.49 5.75Q106.29 7.15 107.64 8.38 108.99 9.6 110.69 9.6L110.69 9.6Q112.69 9.6 113.99 8.78 115.29 7.95 116.04 6.7 116.79 5.45 117.17 4.1 117.54 2.75 117.74 1.7L117.74 1.7Q117.99 0.45 118.04-0.78 118.09-2 118.14-3.2L118.14-3.2 117.84-3.45Q115.74-2.15 113.29-0.88 110.84 0.4 108.44 0.4L108.44 0.4Q106.64 0.4 105.59-0.4 104.54-1.2 104.04-2.48 103.54-3.75 103.39-5.18 103.24-6.6 103.24-7.85L103.24-7.85Q103.24-9.55 103.34-11.2 103.44-12.85 103.44-14.7L103.44-14.7Q103.44-17.4 103.07-18.95 102.69-20.5 101.14-20.5L101.14-20.5Q100.49-20.5 99.47-20.03 98.44-19.55 97.59-19.1L97.59-19.1 97.04-20.05Q97.29-20.25 98.09-20.78 98.89-21.3 99.92-21.9 100.94-22.5 102.04-22.95 103.14-23.4 103.99-23.4L103.99-23.4Q105.59-23.4 106.37-22.35 107.14-21.3 107.14-19.9L107.14-19.9Q107.14-17.8 107.04-15.65 106.94-13.5 106.94-11.3L106.94-11.3Q107.04-9 107.22-7.6 107.39-6.2 107.67-5.43 107.94-4.65 108.34-4.1L108.34-4.1Q108.89-3.4 109.74-3.1 110.59-2.8 111.49-2.8L111.49-2.8Q113.29-2.8 115.04-3.7 116.79-4.6 118.19-5.4L118.19-5.4Q118.24-6.7 118.27-8.05 118.29-9.4 118.29-10.75L118.29-10.75Q118.29-13.45 118.19-16.13 118.09-18.8 117.89-21.4L117.89-21.4 121.84-23.3 122.44-23.1Q122.19-19.3 122.14-15.5 122.09-11.7 122.07-8.28 122.04-4.85 121.92-2.1 121.79 0.65 121.39 2.45L121.39 2.45Q120.49 5.7 118.62 7.73 116.74 9.75 114.27 10.7 111.79 11.65 109.09 11.65L109.09 11.65Q107.34 11.65 105.54 10.9 103.74 10.15 102.74 9.1ZM131.34 9.1L131.34 9.1 131.24 8.55 133.44 5.75 134.09 5.75Q134.89 7.15 136.24 8.38 137.59 9.6 139.29 9.6L139.29 9.6Q141.29 9.6 142.59 8.78 143.89 7.95 144.64 6.7 145.39 5.45 145.76 4.1 146.14 2.75 146.34 1.7L146.34 1.7Q146.59 0.45 146.64-0.78 146.69-2 146.74-3.2L146.74-3.2 146.44-3.45Q144.34-2.15 141.89-0.88 139.44 0.4 137.04 0.4L137.04 0.4Q135.24 0.4 134.19-0.4 133.14-1.2 132.64-2.48 132.14-3.75 131.99-5.18 131.84-6.6 131.84-7.85L131.84-7.85Q131.84-9.55 131.94-11.2 132.04-12.85 132.04-14.7L132.04-14.7Q132.04-17.4 131.66-18.95 131.29-20.5 129.74-20.5L129.74-20.5Q129.09-20.5 128.06-20.03 127.04-19.55 126.19-19.1L126.19-19.1 125.64-20.05Q125.89-20.25 126.69-20.78 127.49-21.3 128.51-21.9 129.54-22.5 130.64-22.95 131.74-23.4 132.59-23.4L132.59-23.4Q134.19-23.4 134.96-22.35 135.74-21.3 135.74-19.9L135.74-19.9Q135.74-17.8 135.64-15.65 135.54-13.5 135.54-11.3L135.54-11.3Q135.64-9 135.81-7.6 135.99-6.2 136.26-5.43 136.54-4.65 136.94-4.1L136.94-4.1Q137.49-3.4 138.34-3.1 139.19-2.8 140.09-2.8L140.09-2.8Q141.89-2.8 143.64-3.7 145.39-4.6 146.79-5.4L146.79-5.4Q146.84-6.7 146.86-8.05 146.89-9.4 146.89-10.75L146.89-10.75Q146.89-13.45 146.79-16.13 146.69-18.8 146.49-21.4L146.49-21.4 150.44-23.3 151.04-23.1Q150.79-19.3 150.74-15.5 150.69-11.7 150.66-8.28 150.64-4.85 150.51-2.1 150.39 0.65 149.99 2.45L149.99 2.45Q149.09 5.7 147.21 7.73 145.34 9.75 142.86 10.7 140.39 11.65 137.69 11.65L137.69 11.65Q135.94 11.65 134.14 10.9 132.34 10.15 131.34 9.1ZM159.09-18L159.09-18 159.19-26.05Q159.19-27.15 159.19-28.53 159.19-29.9 158.86-31 158.54-32.1 157.54-32.35L157.54-32.35 154.79-33 154.79-34.05 155.14-34.4Q157.79-34.4 160.89-34.4 163.99-34.4 166.96-34.4 169.94-34.4 172.39-34.43 174.84-34.45 176.19-34.5L176.19-34.5 176.19-31.85 175.79-31.45Q173.09-31.65 170.39-32.05 167.69-32.45 164.99-32.45L164.99-32.45Q164.49-32.45 164.04-32.2 163.59-31.95 163.39-31.3L163.39-31.3Q163.34-31.05 163.26-30.63 163.19-30.2 163.14-29.1 163.09-28 163.06-25.75 163.04-23.5 163.04-19.55L163.04-19.55Q163.04-19.35 163.19-19.13 163.34-18.9 163.69-18.9L163.69-18.9Q166.44-18.9 169.59-19.15 172.74-19.4 175.44-19.5L175.44-19.5 175.39-17.05 175.14-16.8Q172.54-16.95 169.44-17 166.34-17.05 163.69-17.05L163.69-17.05Q163.49-17.05 163.29-16.9 163.09-16.75 163.09-16.5L163.09-16.5Q163.09-12.7 163.14-8.58 163.19-4.45 163.34-0.65L163.34-0.65 158.74 0.1Q158.89-4.45 158.99-8.95 159.09-13.45 159.09-18ZM187.08-31.25L187.08-31.25Q187.03-30 186.16-29.23 185.28-28.45 184.08-28.45L184.08-28.45Q182.88-28.45 182.03-29.3 181.18-30.15 181.18-31.35L181.18-31.35Q181.18-32.65 182.23-33.4 183.28-34.15 184.38-34.15L184.38-34.15Q185.68-34.15 186.38-33.27 187.08-32.4 187.08-31.25ZM186.38-19.6L186.38-19.6 185.98-9.1Q185.98-6.35 186.43-4.8 186.88-3.25 188.18-3.25L188.18-3.25Q189.63-3.25 190.71-3.93 191.78-4.6 192.78-5.5L192.78-5.5 193.43-5 193.43-4.45Q192.58-3.35 191.46-2.23 190.33-1.1 189.06-0.35 187.78 0.4 186.38 0.4L186.38 0.4Q185.33 0.4 184.41 0.03 183.48-0.35 182.93-1.55 182.38-2.75 182.38-5.2L182.38-5.2 182.68-16.25Q182.68-18.2 182.31-19.35 181.93-20.5 180.93-20.5L180.93-20.5Q180.13-20.5 178.98-19.98 177.83-19.45 176.93-18.9L176.93-18.9 176.28-19.8Q177.98-21.15 179.91-22.35 181.83-23.55 183.28-23.55L183.28-23.55Q184.98-23.55 185.68-22.4 186.38-21.25 186.38-19.6ZM198.98-29.1L198.98-29.1 203.18-30.55 203.53-30.3Q203.33-28.15 203.18-26.18 203.03-24.2 202.98-22L202.98-22 203.28-21.75 209.68-21.75 209.93-21.55 209.53-20.25 209.23-20 203.28-20 202.98-19.7 202.98-10.25Q202.98-8.5 203.21-6.75 203.43-5 204.21-3.88 204.98-2.75 206.53-2.75L206.53-2.75Q207.48-2.75 208.73-3.43 209.98-4.1 211.08-4.8L211.08-4.8 211.68-4.7 212.03-3.95Q210.33-2.35 208.18-0.95 206.03 0.45 203.83 0.45L203.83 0.45Q202.98 0.45 201.96 0.13 200.93-0.2 200.23-1.1L200.23-1.1Q199.73-1.8 199.48-2.6 199.23-3.4 199.16-5.1 199.08-6.8 199.08-10.15L199.08-10.15 199.08-19.65 198.78-20 193.18-20 192.93-20.25 193.28-21.45 193.58-21.75 198.78-21.75 199.08-22.05Q199.08-23.95 199.08-26.05 199.08-28.15 198.98-29.1Z" opacity="1" transform="matrix(1,0,0,1,0,0)" fill="#ffffff" class="slogan-text-1" data-fill-palette-color="secondary" id="text-1"></path></svg></g></svg></g></svg></g></svg></g><g></g></svg></g></svg></g></svg></g></svg></g><defs></defs></svg><rect width="320" height="360" fill="none" stroke="none" visibility="hidden"></rect></g></svg></g></svg>