<svg xmlns="http://www.w3.org/2000/svg" version="1.1" xmlns:xlink="http://www.w3.org/1999/xlink" xmlns:svgjs="http://svgjs.dev/svgjs" width="2000" height="1500" viewBox="0 0 2000 1500"><rect width="2000" height="1500" fill="#000000"></rect><g transform="matrix(0.75,0,0,0.75,249.090909090909,282.7536437246963)"><svg viewBox="0 0 396 247" data-background-color="#ffffff" preserveAspectRatio="xMidYMid meet" height="1247" width="2000" xmlns="http://www.w3.org/2000/svg" xmlns:xlink="http://www.w3.org/1999/xlink"><g id="tight-bounds" transform="matrix(1,0,0,1,0.2400000000000091,-0.09999999999999432)"><svg viewBox="0 0 395.52 247.2" height="247.2" width="395.52"><g><svg></svg></g><g><svg viewBox="0 0 395.52 247.2" height="247.2" width="395.52"><mask id="ead58c5a-3a0b-4b5b-94a5-dc17a5837318"><rect width="640" height="400" fill="white"></rect><g transform="matrix(1,0,0,1,117.57226249384698,37.08)"><svg viewBox="0 0 160.37547501230603 173.04" height="173.04" width="160.37547501230603"><g><svg viewBox="0 0 160.37547501230603 173.04" height="173.04" width="160.37547501230603"><g><svg viewBox="0 0 160.37547501230603 173.04" height="173.04" width="160.37547501230603"><g><svg viewBox="0 0 160.37547501230603 173.04" height="173.04" width="160.37547501230603"><g id="SvgjsG2831"><svg viewBox="0 0 160.37547501230603 173.04" height="173.04" width="160.37547501230603" id="SvgjsSvg2830"><g><svg viewBox="0 0 160.37547501230603 173.04" height="173.04" width="160.37547501230603"><g transform="matrix(1,0,0,1,0,0)"><svg width="160.37547501230603" viewBox="0.98 -36.99 35.93 38.7" height="173.04" data-palette-color="#912a66"><path d="M35.91-26.44L35.91-26.44 31.74-24.68Q31.25-26.27 30.43-27.59 29.61-28.91 28.48-29.85 27.34-30.79 25.9-31.31 24.46-31.84 22.75-31.84L22.75-31.84Q20.92-31.84 19.4-31.23 17.87-30.62 16.66-29.58 15.45-28.54 14.55-27.15 13.65-25.76 13.05-24.18 12.45-22.61 12.15-20.92 11.84-19.24 11.84-17.63L11.84-17.63Q11.84-15.06 12.44-12.52 13.04-9.99 14.34-7.96 15.65-5.93 17.72-4.68 19.8-3.42 22.75-3.42L22.75-3.42Q24.37-3.42 25.27-4.14 26.17-4.86 26.17-6.67L26.17-6.67 26.17-17.46 35.86-17.46 35.86 0 33.06 0 31.35-2.76Q29-0.98 26.18-0.13 23.36 0.71 20.43 0.71L20.43 0.71Q17.85 0.71 15.47 0.07 13.09-0.56 11.04-1.73 8.98-2.91 7.31-4.57 5.64-6.23 4.46-8.25 3.27-10.28 2.62-12.66 1.98-15.04 1.98-17.63L1.98-17.63Q1.98-20.21 2.62-22.6 3.27-24.98 4.46-27.01 5.64-29.05 7.31-30.71 8.98-32.37 11.04-33.54 13.09-34.72 15.47-35.35 17.85-35.99 20.43-35.99L20.43-35.99Q22.92-35.99 25.31-35.4 27.69-34.81 29.74-33.63 31.79-32.45 33.39-30.65 34.99-28.86 35.91-26.44Z" opacity="1" transform="matrix(1,0,0,1,0,0)" fill="black" class="wordmark-text-0" id="SvgjsPath2829" stroke-width="1" stroke="black" stroke-linejoin="round"></path></svg></g></svg></g></svg></g></svg></g><g></g></svg></g></svg></g></svg></g></mask><g transform="matrix(1,0,0,1,117.57226249384698,37.08)"><svg viewBox="0 0 160.37547501230603 173.04" height="173.04" width="160.37547501230603"><g><svg viewBox="0 0 160.37547501230603 173.04" height="173.04" width="160.37547501230603"><g><svg viewBox="0 0 160.37547501230603 173.04" height="173.04" width="160.37547501230603"><g><svg viewBox="0 0 160.37547501230603 173.04" height="173.04" width="160.37547501230603"><g id="textblocktransform"><svg viewBox="0 0 160.37547501230603 173.04" height="173.04" width="160.37547501230603" id="textblock"><g><svg viewBox="0 0 160.37547501230603 173.04" height="173.04" width="160.37547501230603"><g transform="matrix(1,0,0,1,0,0)"><svg width="160.37547501230603" viewBox="0.98 -36.99 35.93 38.7" height="173.04" data-palette-color="#912a66"><path d="M35.91-26.44L35.91-26.44 31.74-24.68Q31.25-26.27 30.43-27.59 29.61-28.91 28.48-29.85 27.34-30.79 25.9-31.31 24.46-31.84 22.75-31.84L22.75-31.84Q20.92-31.84 19.4-31.23 17.87-30.62 16.66-29.58 15.45-28.54 14.55-27.15 13.65-25.76 13.05-24.18 12.45-22.61 12.15-20.92 11.84-19.24 11.84-17.63L11.84-17.63Q11.84-15.06 12.44-12.52 13.04-9.99 14.34-7.96 15.65-5.93 17.72-4.68 19.8-3.42 22.75-3.42L22.75-3.42Q24.37-3.42 25.27-4.14 26.17-4.86 26.17-6.67L26.17-6.67 26.17-17.46 35.86-17.46 35.86 0 33.06 0 31.35-2.76Q29-0.98 26.18-0.13 23.36 0.71 20.43 0.71L20.43 0.71Q17.85 0.71 15.47 0.07 13.09-0.56 11.04-1.73 8.98-2.91 7.31-4.57 5.64-6.23 4.46-8.25 3.27-10.28 2.62-12.66 1.98-15.04 1.98-17.63L1.98-17.63Q1.98-20.21 2.62-22.6 3.27-24.98 4.46-27.01 5.64-29.05 7.31-30.71 8.98-32.37 11.04-33.54 13.09-34.72 15.47-35.35 17.85-35.99 20.43-35.99L20.43-35.99Q22.92-35.99 25.31-35.4 27.69-34.81 29.74-33.63 31.79-32.45 33.39-30.65 34.99-28.86 35.91-26.44Z" opacity="1" transform="matrix(1,0,0,1,0,0)" fill="#ffffff" class="wordmark-text-0" data-fill-palette-color="primary" id="text-0"></path></svg></g></svg></g></svg></g></svg></g><g></g></svg></g></svg></g></svg></g><g mask="url(#ead58c5a-3a0b-4b5b-94a5-dc17a5837318)"><g transform="matrix(2.7214206437291897, 0, 0, 2.7214206437291897, 105.85592739920546, 1)"><svg xmlns="http://www.w3.org/2000/svg" xmlns:xlink="http://www.w3.org/1999/xlink" version="1.1" x="0" y="0" viewBox="16.22937625884345 4.9 67.54124748231311 90.1" enable-background="new 0 0 100 100" xml:space="preserve" height="90.1" width="67.54124748231311" class="icon-none" data-fill-palette-color="accent" id="none"><path d="M63 50.6L83.3 56.9C84.1 57.1 83.8 58.3 83 58.2L62 55.1C61.4 55 61 55.8 61.5 56.2L77 70.7C77.6 71.2 76.9 72.2 76.2 71.7L58.6 59.8C58.1 59.4 57.4 60 57.6 60.6L65.3 80.4C65.6 81.1 64.5 81.6 64.1 81L53.5 62.5C53.2 62 52.3 62.1 52.3 62.8L50.7 94.4C50.6 95.2 49.5 95.2 49.4 94.4L47.8 62.8C47.8 62.2 46.9 62 46.6 62.5L35.8 80.9C35.4 81.6 34.3 81.1 34.6 80.3L42.3 60.5C42.5 59.9 41.9 59.4 41.3 59.7L23.8 71.7C23.1 72.1 22.4 71.2 23 70.7L38.5 56.2C39 55.8 38.6 55 38 55.1L17 58.2C16.2 58.3 16 57.2 16.7 56.9L37 50.6C37.6 50.4 37.6 49.6 37 49.4L16.7 43.1C15.9 42.9 16.2 41.7 17 41.8L38 44.9C38.6 45 39 44.2 38.5 43.8L23 29.3C22.4 28.8 23.1 27.8 23.8 28.3L41.4 40.2C41.9 40.6 42.6 40 42.4 39.4L34.7 19.6C34.4 18.9 35.5 18.4 35.9 19L46.6 37.4C46.9 37.9 47.8 37.8 47.8 37.1L49.4 5.5C49.5 4.7 50.6 4.7 50.7 5.5L52.3 37.1C52.3 37.7 53.2 37.9 53.5 37.4L64.2 19C64.6 18.3 65.7 18.8 65.4 19.6L57.7 39.4C57.5 40 58.1 40.5 58.7 40.2L76.3 28.3C77 27.9 77.7 28.8 77.1 29.3L61.4 43.8C61 44.2 61.3 45 62 44.9L83 41.8C83.8 41.7 84 42.8 83.3 43.1L63 49.4C62.4 49.6 62.4 50.4 63 50.6" fill="#ffffff" data-fill-palette-color="accent"></path></svg></g></g></svg></g><defs></defs></svg><rect width="395.52" height="247.2" fill="none" stroke="none" visibility="hidden"></rect></g></svg></g></svg>